<svg width="193" height="193" viewBox="0 0 193 193" fill="none" xmlns="http://www.w3.org/2000/svg">
<path d="M96.5 39.2031C96.5 35.2042 98.0886 31.369 100.916 28.5413C103.744 25.7136 107.579 24.125 111.578 24.125C115.577 24.125 119.412 25.7136 122.24 28.5413C125.068 31.369 126.656 35.2042 126.656 39.2031V84.4375" stroke="black" stroke-width="2" stroke-linecap="round" stroke-linejoin="round"/>
<path d="M66.3438 51.2656V27.1406C66.3438 23.1417 67.9323 19.3065 70.76 16.4788C73.5877 13.6511 77.4229 12.0625 81.4219 12.0625C85.4208 12.0625 89.256 13.6511 92.0837 16.4788C94.9114 19.3065 96.5 23.1417 96.5 27.1406V78.4062" stroke="black" stroke-width="2" stroke-linecap="round" stroke-linejoin="round"/>
<path d="M96.5 129.672C96.5 121.674 99.6772 114.004 105.333 108.348C110.988 102.693 118.658 99.5156 126.656 99.5156V84.4375C126.656 80.4385 128.245 76.6034 131.073 73.7757C133.9 70.948 137.735 69.3594 141.734 69.3594C145.733 69.3594 149.569 70.948 152.396 73.7757C155.224 76.6034 156.812 80.4385 156.812 84.4375V114.594C156.812 130.59 150.458 145.93 139.147 157.241C127.837 168.552 112.496 174.906 96.5 174.906C80.5041 174.906 65.1634 168.552 53.8526 157.241C42.5418 145.93 36.1875 130.59 36.1875 114.594V51.2656C36.1875 47.2667 37.7761 43.4315 40.6038 40.6038C43.4315 37.7761 47.2667 36.1875 51.2656 36.1875C55.2646 36.1875 59.0998 37.7761 61.9275 40.6038C64.7552 43.4315 66.3438 47.2667 66.3438 51.2656V84.4375" stroke="black" stroke-width="2" stroke-linecap="round" stroke-linejoin="round"/>
</svg>
