<svg width="177" height="177" viewBox="0 0 177 177" fill="none" xmlns="http://www.w3.org/2000/svg">
<path d="M35.8146 84.2826C34.9974 82.8662 33.9093 81.6246 32.6122 80.6287C31.3152 79.6328 29.8348 78.9021 28.2554 78.4784C26.676 78.0547 25.0286 77.9462 23.4073 78.1591C21.7859 78.372 20.2224 78.9022 18.806 79.7194C17.3896 80.5365 16.1479 81.6247 15.1521 82.9217C14.1562 84.2187 13.4255 85.6992 13.0017 87.2786C12.578 88.858 12.4695 90.5054 12.6824 92.1267C12.8954 93.748 13.4255 95.3115 14.2427 96.728L39.8247 141.047C46.4938 152.346 57.3536 160.555 70.0429 163.889C82.7321 167.224 96.2247 165.414 107.587 158.854C118.949 152.294 127.262 141.513 130.718 128.856C134.174 116.2 132.494 102.69 126.043 91.2658L114.289 70.8694C112.538 68.2276 109.844 66.3538 106.758 65.6302C103.672 64.9066 100.426 65.3878 97.6826 66.9756C94.9393 68.5634 92.9051 71.1381 91.9953 74.1744C91.0854 77.2108 91.3684 80.4799 92.7865 83.3147" stroke="black" stroke-width="2" stroke-linecap="round" stroke-linejoin="round"/>
<path d="M73.9808 100.599L47.7074 55.1048C46.8902 53.6884 45.8021 52.4468 44.5051 51.4509C43.2081 50.455 41.7276 49.7243 40.1482 49.3006C38.5688 48.8768 36.9214 48.7683 35.3001 48.9813C33.6788 49.1942 32.1152 49.7244 30.6988 50.5415C29.2824 51.3587 28.0408 52.4469 27.0449 53.7439C26.049 55.0409 25.3183 56.5213 24.8946 58.1007C24.4708 59.6801 24.3623 61.3275 24.5752 62.9489C24.7882 64.5702 25.3184 66.1337 26.1355 67.5501L52.409 113.045" stroke="black" stroke-width="2" stroke-linecap="round" stroke-linejoin="round"/>
<path d="M103.849 102.536L74.81 52.2013C73.1596 49.3407 70.4405 47.2528 67.2508 46.397C64.061 45.5413 60.662 45.9876 57.8014 47.638C54.9408 49.2884 52.8529 52.0075 51.9971 55.1972C51.1414 58.3869 51.5877 61.786 53.2381 64.6466" stroke="black" stroke-width="2" stroke-linecap="round" stroke-linejoin="round"/>
<path d="M68.449 46.8077L61.3275 34.4315C59.6772 31.5709 56.9581 29.483 53.7683 28.6273C50.5786 27.7715 47.1796 28.2179 44.319 29.8682C41.4583 31.5186 39.3705 34.2377 38.5147 37.4274C37.6589 40.6172 38.1053 44.0162 39.7557 46.8768L41.415 49.7116" stroke="black" stroke-width="2" stroke-linecap="round" stroke-linejoin="round"/>
<path d="M129.984 132.404C138.423 124.763 143.992 114.463 145.766 103.218C147.539 91.9733 145.41 80.4599 139.733 70.5923L127.979 50.265C127.162 48.8485 126.074 47.6069 124.777 46.611C123.48 45.6151 122 44.8845 120.42 44.4607C118.841 44.037 117.193 43.9285 115.572 44.1414C113.951 44.3543 112.387 44.8845 110.971 45.7017C109.554 46.5189 108.313 47.607 107.317 48.904C106.321 50.201 105.59 51.6815 105.167 53.2609C104.743 54.8403 104.634 56.4877 104.847 58.109C105.06 59.7303 105.59 61.2939 106.407 62.7103" stroke="black" stroke-width="2" stroke-linecap="round" stroke-linejoin="round"/>
<path d="M107.997 65.4759L88.4303 31.597C86.78 28.7364 84.0609 26.6486 80.8711 25.7928C77.6814 24.937 74.2823 25.3834 71.4217 27.0338C68.5611 28.6841 66.4733 31.4032 65.6175 34.593C64.7617 37.7827 65.2081 41.1817 66.8585 44.0423" stroke="black" stroke-width="2" stroke-linecap="round" stroke-linejoin="round"/>
<path d="M122.24 7.81348L119.405 18.4611" stroke="black" stroke-width="2" stroke-linecap="round" stroke-linejoin="round"/>
<path d="M143.191 17.562L136.83 26.6194" stroke="black" stroke-width="2" stroke-linecap="round" stroke-linejoin="round"/>
<path d="M159.438 33.8101L150.381 40.171" stroke="black" stroke-width="2" stroke-linecap="round" stroke-linejoin="round"/>
</svg>
