<svg width="177" height="177" viewBox="0 0 177 177" fill="none" xmlns="http://www.w3.org/2000/svg">
<path d="M63.6094 105.094C71.2464 105.094 77.4375 98.9027 77.4375 91.2656C77.4375 83.6286 71.2464 77.4375 63.6094 77.4375C55.9723 77.4375 49.7812 83.6286 49.7812 91.2656C49.7812 98.9027 55.9723 105.094 63.6094 105.094Z" stroke="white" stroke-width="2" stroke-linecap="round" stroke-linejoin="round"/>
<path d="M113.391 105.094C121.028 105.094 127.219 98.9027 127.219 91.2656C127.219 83.6286 121.028 77.4375 113.391 77.4375C105.754 77.4375 99.5625 83.6286 99.5625 91.2656C99.5625 98.9027 105.754 105.094 113.391 105.094Z" stroke="white" stroke-width="2" stroke-linecap="round" stroke-linejoin="round"/>
<path d="M55.3125 134.478C43.4843 127.244 34.3435 116.344 29.2815 103.436C24.2195 90.5281 23.5136 76.3198 27.2712 62.9738C31.0287 49.6277 39.044 37.8748 50.0969 29.5041C61.1498 21.1334 74.6351 16.6033 88.5 16.6033C102.365 16.6033 115.85 21.1334 126.903 29.5041C137.956 37.8748 145.971 49.6277 149.729 62.9738C153.486 76.3198 152.78 90.5281 147.719 103.436C142.657 116.344 133.516 127.244 121.688 134.478V149.343C121.688 150.81 121.105 152.217 120.067 153.255C119.03 154.292 117.623 154.875 116.156 154.875H60.8438C59.3768 154.875 57.9699 154.292 56.9326 153.255C55.8953 152.217 55.3125 150.81 55.3125 149.343V134.478Z" stroke="white" stroke-width="2" stroke-linecap="round" stroke-linejoin="round"/>
<path d="M77.4375 154.875V132.75" stroke="white" stroke-width="2" stroke-linecap="round" stroke-linejoin="round"/>
<path d="M99.5625 154.875V132.75" stroke="white" stroke-width="2" stroke-linecap="round" stroke-linejoin="round"/>
</svg>
